<svg width="16" height="16" viewBox="0 0 16 16" fill="none" xmlns="http://www.w3.org/2000/svg">
<g id="Logo--instagram">
<rect width="16" height="16" fill="white" style="mix-blend-mode:multiply"/>
<g id="Vector">
<path d="M11.2028 5.5172C11.6004 5.5172 11.9228 5.19485 11.9228 4.7972C11.9228 4.39956 11.6004 4.0772 11.2028 4.0772C10.8052 4.0772 10.4828 4.39956 10.4828 4.7972C10.4828 5.19485 10.8052 5.5172 11.2028 5.5172Z" fill="#161616"/>
<path d="M8 4.9189C7.39062 4.9189 6.79492 5.0996 6.28823 5.43816C5.78155 5.77671 5.38664 6.25792 5.15343 6.82091C4.92023 7.38391 4.85922 8.00342 4.9781 8.60109C5.09699 9.19877 5.39043 9.74777 5.82133 10.1787C6.25223 10.6096 6.80123 10.903 7.39891 11.0219C7.99658 11.1408 8.61609 11.0798 9.17909 10.8466C9.74208 10.6134 10.2233 10.2185 10.5618 9.71177C10.9004 9.20508 11.0811 8.60938 11.0811 8C11.0811 7.18284 10.7565 6.39915 10.1787 5.82133C9.60085 5.24352 8.81716 4.9189 8 4.9189ZM8 10C7.60444 10 7.21776 9.8827 6.88886 9.66294C6.55996 9.44318 6.30362 9.13082 6.15224 8.76537C6.00087 8.39991 5.96126 7.99778 6.03843 7.60982C6.1156 7.22186 6.30608 6.86549 6.58579 6.58579C6.86549 6.30608 7.22186 6.1156 7.60982 6.03843C7.99778 5.96126 8.39991 6.00087 8.76537 6.15224C9.13082 6.30362 9.44318 6.55996 9.66294 6.88886C9.8827 7.21776 10 7.60444 10 8C10 8.53043 9.78929 9.03914 9.41421 9.41421C9.03914 9.78929 8.53043 10 8 10Z" fill="#161616"/>
<path d="M8 3.0811C9.60205 3.0811 9.79185 3.0872 10.4245 3.1161C10.805 3.12063 11.1818 3.19051 11.5386 3.3227C11.7974 3.42254 12.0324 3.57544 12.2285 3.77155C12.4246 3.96766 12.5775 4.20265 12.6774 4.4614C12.8095 4.8182 12.8794 5.19507 12.884 5.57555C12.9128 6.2082 12.919 6.398 12.919 8.00005C12.919 9.6021 12.9129 9.7919 12.884 10.4246C12.8794 10.805 12.8095 11.1819 12.6774 11.5387C12.5775 11.7975 12.4246 12.0324 12.2285 12.2286C12.0324 12.4247 11.7974 12.5776 11.5386 12.6774C11.1818 12.8096 10.805 12.8795 10.4245 12.884C9.7919 12.9128 9.6022 12.919 8 12.919C6.3978 12.919 6.2081 12.9129 5.5755 12.884C5.19502 12.8795 4.81815 12.8096 4.46135 12.6774C4.2026 12.5776 3.96761 12.4247 3.7715 12.2286C3.57539 12.0324 3.42249 11.7975 3.32265 11.5387C3.19046 11.1819 3.12058 10.805 3.11605 10.4246C3.0872 9.7919 3.08105 9.6021 3.08105 8.00005C3.08105 6.398 3.08715 6.2082 3.11605 5.57555C3.12058 5.19507 3.19046 4.8182 3.32265 4.4614C3.42249 4.20264 3.57538 3.96764 3.77149 3.77152C3.9676 3.5754 4.20259 3.4225 4.46135 3.32265C4.81815 3.19046 5.19502 3.12058 5.5755 3.11605C6.20815 3.0872 6.39795 3.0811 8 3.0811ZM8 2C6.3705 2 6.16615 2.0069 5.5262 2.0361C5.02853 2.04609 4.53615 2.14039 4.07 2.315C3.67137 2.46916 3.30934 2.7049 3.00712 3.00712C2.7049 3.30934 2.46916 3.67137 2.315 4.07C2.14037 4.53623 2.04606 5.02869 2.0361 5.52645C2.0069 6.16615 2 6.3705 2 8C2 9.6295 2.0069 9.83385 2.0361 10.4738C2.04607 10.9716 2.14037 11.464 2.315 11.9303C2.46916 12.3289 2.7049 12.6909 3.00712 12.9931C3.30934 13.2954 3.67137 13.5311 4.07 13.6853C4.53623 13.8599 5.02869 13.9542 5.52645 13.9642C6.16615 13.9931 6.3705 14 8 14C9.6295 14 9.83385 13.9931 10.4738 13.9639C10.9716 13.9539 11.464 13.8596 11.9303 13.685C12.3289 13.5308 12.6909 13.2951 12.9931 12.9929C13.2954 12.6907 13.5311 12.3286 13.6853 11.93C13.8599 11.4638 13.9542 10.9713 13.9642 10.4735C13.9931 9.83385 14 9.6295 14 8C14 6.3705 13.9931 6.16615 13.9639 5.5262C13.9539 5.02853 13.8596 4.53615 13.685 4.07C13.5308 3.67141 13.2951 3.30943 12.9928 3.00726C12.6906 2.70508 12.3286 2.46938 11.93 2.31525C11.4638 2.14062 10.9713 2.04632 10.4735 2.03635C9.83385 2.0069 9.6295 2 8 2Z" fill="#161616"/>
</g>
</g>
</svg>
