<svg width="16" height="16" viewBox="0 0 16 16" fill="none" xmlns="http://www.w3.org/2000/svg">
<g id="Logo--pinterest">
<rect width="16" height="16" fill="white" style="mix-blend-mode:multiply"/>
<path id="Vector" d="M8.00001 1C6.37714 1.01105 4.80852 1.58566 3.56252 2.62552C2.31651 3.66538 1.47054 5.10588 1.16931 6.70059C0.868088 8.2953 1.13033 9.94513 1.91119 11.3678C2.69204 12.7906 3.94298 13.8977 5.45001 14.5C5.34872 13.8372 5.34872 13.1628 5.45001 12.5L6.27501 9C6.14445 8.68302 6.0798 8.34278 6.08501 8C6.08501 7.03 6.65001 6.3 7.35001 6.3C7.47682 6.29809 7.60255 6.32362 7.71857 6.37483C7.8346 6.42604 7.93818 6.50172 8.02224 6.59669C8.10629 6.69167 8.16882 6.80369 8.20554 6.92508C8.24227 7.04647 8.25232 7.17436 8.23501 7.3C8.23501 7.9 7.85501 8.8 7.65501 9.63C7.61196 9.78479 7.60685 9.94767 7.64009 10.1049C7.67333 10.262 7.74396 10.4089 7.84599 10.533C7.94802 10.6571 8.07845 10.7548 8.22624 10.8178C8.37403 10.8808 8.53482 10.9073 8.69501 10.895C9.93501 10.895 10.895 9.58 10.895 7.69C10.9075 7.30594 10.8398 6.9235 10.6962 6.56708C10.5526 6.21065 10.3363 5.88807 10.0611 5.61991C9.78584 5.35175 9.45775 5.14389 9.09772 5.00961C8.73769 4.87533 8.35361 4.81756 7.97001 4.84C7.56046 4.82241 7.1516 4.8881 6.76817 5.03311C6.38475 5.17812 6.03473 5.39942 5.73931 5.68362C5.44389 5.96782 5.20921 6.30901 5.04948 6.68653C4.88975 7.06406 4.80828 7.47007 4.81001 7.88C4.80445 8.45107 4.97944 9.0093 5.31001 9.475C5.33405 9.50172 5.35117 9.53392 5.35989 9.56878C5.3686 9.60365 5.36865 9.64011 5.36001 9.675C5.30501 9.895 5.18501 10.375 5.16501 10.47C5.14501 10.565 5.06001 10.625 4.93001 10.565C4.05501 10.155 3.51001 8.88 3.51001 7.85C3.51001 5.645 5.11501 3.615 8.13501 3.615C10.56 3.615 12.45 5.345 12.45 7.66C12.45 10.07 10.95 12.01 8.81501 12.01C8.50202 12.0209 8.19127 11.9534 7.91097 11.8137C7.63068 11.674 7.38973 11.4665 7.21001 11.21L6.77501 12.875C6.56648 13.5221 6.27399 14.139 5.90501 14.71C6.5849 14.9109 7.2911 15.0087 8.00001 15C9.85653 15 11.637 14.2625 12.9498 12.9497C14.2625 11.637 15 9.85652 15 8C15 6.14348 14.2625 4.36301 12.9498 3.05025C11.637 1.7375 9.85653 1 8.00001 1Z" fill="#161616"/>
</g>
</svg>
