<svg width="16" height="16" viewBox="0 0 16 16" fill="none" xmlns="http://www.w3.org/2000/svg">
<g id="Logo--skype">
<rect width="16" height="16" fill="white" style="mix-blend-mode:multiply"/>
<path id="Vector" d="M13.955 8.93995C14.0054 8.62917 14.0305 8.3148 14.03 7.99995C14.03 6.4007 13.3947 4.86694 12.2639 3.7361C11.133 2.60526 9.59929 1.96995 8.00003 1.96995C7.68518 1.96946 7.37082 1.99455 7.06003 2.04495C6.36307 1.62746 5.5466 1.45477 4.74028 1.55433C3.93396 1.65389 3.18402 2.01997 2.60953 2.59446C2.03505 3.16894 1.66896 3.91889 1.56941 4.7252C1.46985 5.53152 1.64253 6.34799 2.06003 7.04495C2.00378 7.36027 1.97368 7.67969 1.97003 7.99995C1.97003 9.59921 2.60533 11.133 3.73618 12.2638C4.86702 13.3947 6.40077 14.03 8.00003 14.03C8.31488 14.0304 8.62924 14.0054 8.94003 13.955C9.63699 14.3725 10.4535 14.5451 11.2598 14.4456C12.0661 14.346 12.816 13.9799 13.3905 13.4055C13.965 12.831 14.3311 12.081 14.4307 11.2747C14.5302 10.4684 14.3575 9.65192 13.94 8.95495L13.955 8.93995ZM10.865 10.74C10.5828 11.1301 10.1939 11.4305 9.74503 11.605C9.19122 11.8223 8.59982 11.9277 8.00503 11.915C7.31271 11.9439 6.62396 11.8014 6.00003 11.5C5.63627 11.3044 5.32433 11.025 5.09003 10.685C4.87541 10.3944 4.75342 10.0459 4.74003 9.68495C4.7395 9.5913 4.75833 9.49854 4.79532 9.41251C4.83232 9.32647 4.88669 9.249 4.95503 9.18495C5.10647 9.05607 5.30142 8.98989 5.50003 8.99995C5.66601 8.99682 5.82755 9.05362 5.95503 9.15995C6.09457 9.29049 6.20233 9.45127 6.27003 9.62995C6.35678 9.83875 6.46752 10.0368 6.60003 10.22C6.7321 10.3891 6.90383 10.523 7.10003 10.61C7.36652 10.7243 7.65531 10.7773 7.94503 10.765C8.35769 10.7849 8.76641 10.6767 9.11503 10.455C9.24882 10.3766 9.36009 10.265 9.43806 10.1309C9.51602 9.9969 9.55804 9.845 9.56003 9.68995C9.56435 9.58138 9.54565 9.47313 9.50514 9.3723C9.46464 9.27147 9.40326 9.18036 9.32503 9.10495C9.14699 8.94093 8.93291 8.82105 8.70003 8.75495C8.44003 8.66995 8.09503 8.58495 7.66003 8.48995C7.16044 8.37364 6.6732 8.20956 6.20503 7.99995C5.83664 7.84897 5.51181 7.60835 5.26003 7.29995C5.02123 6.98207 4.89778 6.59235 4.91003 6.19495C4.90599 5.79096 5.03612 5.39704 5.28003 5.07495C5.55862 4.72883 5.92963 4.46877 6.35003 4.32495C6.8816 4.1484 7.44019 4.06715 8.00003 4.08495C8.43808 4.07721 8.87475 4.13622 9.29503 4.25995C9.62486 4.35789 9.93468 4.51364 10.21 4.71995C10.4267 4.88271 10.6072 5.08873 10.74 5.32495C10.8481 5.51577 10.9066 5.73067 10.91 5.94995C10.9094 6.04343 10.89 6.13583 10.8531 6.2217C10.8162 6.30758 10.7624 6.38519 10.695 6.44995C10.627 6.52368 10.5442 6.58226 10.452 6.62189C10.3598 6.66151 10.2604 6.6813 10.16 6.67995C9.99919 6.69247 9.83974 6.6423 9.71503 6.53995C9.58383 6.41354 9.47406 6.26662 9.39003 6.10495C9.2662 5.85012 9.08679 5.62629 8.86503 5.44995C8.57401 5.26853 8.23145 5.18772 7.89003 5.21995C7.53957 5.20518 7.19231 5.292 6.89003 5.46995C6.78023 5.52858 6.6875 5.61468 6.6209 5.71984C6.5543 5.825 6.5161 5.94563 6.51003 6.06995C6.50607 6.2058 6.55036 6.33865 6.63503 6.44495C6.73475 6.5605 6.85733 6.65413 6.99503 6.71995C7.14167 6.79581 7.29585 6.85614 7.45503 6.89995C7.61503 6.94495 7.87503 7.00995 8.24003 7.09495C8.70003 7.19495 9.11003 7.30495 9.48503 7.42495C9.82046 7.52715 10.1402 7.67521 10.435 7.86495C10.6922 8.02762 10.9039 8.25302 11.05 8.51995C11.1986 8.82441 11.2674 9.16162 11.25 9.49995C11.2545 9.94338 11.1199 10.3771 10.865 10.74Z" fill="#161616"/>
</g>
</svg>
