<svg width="16" height="16" viewBox="0 0 16 16" fill="none" xmlns="http://www.w3.org/2000/svg">
<g id="Logo--facebook">
<rect width="16" height="16" fill="white" style="mix-blend-mode:multiply"/>
<path id="Vector" d="M13.335 2H2.665C2.48904 2.00131 2.32065 2.07179 2.19622 2.19622C2.07179 2.32065 2.00131 2.48904 2 2.665V13.335C2.00131 13.511 2.07179 13.6794 2.19622 13.8038C2.32065 13.9282 2.48904 13.9987 2.665 14H8.41V9.36H6.85V7.545H8.41V6.21C8.41 4.66 9.355 3.815 10.745 3.815C11.21 3.815 11.675 3.815 12.14 3.885V5.5H11.185C10.43 5.5 10.285 5.86 10.285 6.385V7.54H12.085L11.85 9.355H10.285V14H13.335C13.511 13.9987 13.6794 13.9282 13.8038 13.8038C13.9282 13.6794 13.9987 13.511 14 13.335V2.665C13.9987 2.48904 13.9282 2.32065 13.8038 2.19622C13.6794 2.07179 13.511 2.00131 13.335 2Z" fill="#161616"/>
</g>
</svg>
