<svg width="16" height="16" viewBox="0 0 16 16" fill="none" xmlns="http://www.w3.org/2000/svg">
<g id="Logo--linkedin">
<rect width="16" height="16" fill="white" style="mix-blend-mode:multiply"/>
<path id="Vector" d="M13.1 2H2.9C2.4 2 2 2.4 2 2.85V13.1C2 13.55 2.4 13.95 2.9 13.95H13.1C13.6 13.95 14 13.55 14 13.1V2.85C14 2.4 13.6 2 13.1 2ZM5.55 12.2H3.8V6.5H5.55V12.2ZM4.7 5.7C4.15 5.7 3.65 5.25 3.65 4.65C3.65 4.05 4.1 3.6 4.7 3.6C5.25 3.6 5.75 4.05 5.75 4.65C5.75 5.25 5.25 5.7 4.7 5.7ZM12.25 12.15H10.5V9.35C10.5 8.7 10.5 7.8 9.55 7.8C8.6 7.8 8.5 8.55 8.5 9.25V12.1H6.75V6.5H8.4V7.25H8.45C8.7 6.8 9.3 6.3 10.15 6.3C11.95 6.3 12.3 7.5 12.3 9.05V12.15H12.25Z" fill="#161616"/>
</g>
</svg>
