<svg width="16" height="16" viewBox="0 0 16 16" fill="none" xmlns="http://www.w3.org/2000/svg">
<g id="Logo--twitter">
<rect width="16" height="16" fill="white" style="mix-blend-mode:multiply"/>
<path id="Vector" d="M5.96 12.4702C6.80457 12.4755 7.64179 12.313 8.4231 11.9923C9.20441 11.6715 9.91425 11.1988 10.5115 10.6016C11.1087 10.0044 11.5814 9.29456 11.9021 8.51325C12.2229 7.73195 12.3853 6.89473 12.38 6.05016C12.38 5.95016 12.38 5.85515 12.38 5.75516C12.8178 5.4344 13.1967 5.04024 13.5 4.59016C13.0878 4.77045 12.6516 4.89003 12.205 4.94516C12.6785 4.66305 13.0337 4.21899 13.205 3.69515C12.7638 3.95988 12.2799 4.14597 11.775 4.24515C11.435 3.88284 10.985 3.64268 10.4947 3.56185C10.0045 3.48101 9.50122 3.564 9.06287 3.79798C8.62452 4.03196 8.27549 4.40388 8.0698 4.85619C7.86411 5.30851 7.81322 5.816 7.925 6.30016C7.02801 6.25613 6.15036 6.02367 5.34918 5.61791C4.548 5.21215 3.84127 4.6422 3.275 3.94515C2.98946 4.44074 2.90291 5.02632 3.03288 5.58332C3.16285 6.14032 3.49962 6.62712 3.975 6.94516C3.62431 6.93163 3.28173 6.83571 2.975 6.66515V6.69016C2.97188 7.20807 3.14636 7.71141 3.46935 8.11629C3.79234 8.52117 4.24434 8.80312 4.75 8.91515C4.42382 9.00288 4.08215 9.01655 3.75 8.95515C3.89639 9.39685 4.17584 9.78244 4.55002 10.059C4.9242 10.3357 5.3748 10.4897 5.84 10.5002C5.04461 11.1404 4.05605 11.4928 3.035 11.5002C2.85598 11.495 2.67737 11.48 2.5 11.4552C3.53348 12.1136 4.7346 12.4608 5.96 12.4552" fill="#161616"/>
</g>
</svg>
